# xmcd
#
# Track frame offsets: 
#        150
#        10165
#        20725
#        30025
#        40277
#        51932
#        60730
#        71675
#        80517
#        88795
#        96342
#        109370
#        120425
#        130775
#        138372
#        150657
#        159717
#
# Disc length: 2259 seconds
#
# Revision: 0
# Processed by: cddbd v1.5.1PL0 Copyright (c) Steve Scherf et al.
# Submitted via: ExactAudioCopy v0.95a5
#
DISCID=df08d111
DTITLE=The Barnstompers - Western Rhythm
DYEAR=1900
DGENRE=Country
TTITLE0=Two Timin' Mama
TTITLE1=Clueless
TTITLE2=Because You're Always On My Mind
TTITLE3=Whirlpool
TTITLE4=Two Beers
TTITLE5=Happy Heartaches
TTITLE6=It's Hard to Tell An Old Love Goodbye
TTITLE7=Just Can't Live That Fast Any More
TTITLE8=No More Boogie
TTITLE9=I'll Know You're Gone
TTITLE10=Salt Your Pillow Down
TTITLE11=Let It Roll
TTITLE12=I Still Miss Someone
TTITLE13=Hook, Line and Sinker
TTITLE14=Mabel's Done Gone
TTITLE15=Country Cattin'
TTITLE16=Make Me Mad
EXTD=
EXTT0=
EXTT1=
EXTT2=
EXTT3=
EXTT4=
EXTT5=
EXTT6=
EXTT7=
EXTT8=
EXTT9=
EXTT10=
EXTT11=
EXTT12=
EXTT13=
EXTT14=
EXTT15=
EXTT16=
PLAYORDER=
